<svg xmlns="http://www.w3.org/2000/svg" version="1.1" xmlns:xlink="http://www.w3.org/1999/xlink" xmlns:svgjs="http://svgjs.dev/svgjs" width="2000" height="1247" viewBox="0 0 2000 1247"><g transform="matrix(1,0,0,1,-1.2121212121212466,0.504858299595071)"><svg viewBox="0 0 396 247" data-background-color="#ffffff" preserveAspectRatio="xMidYMid meet" height="1247" width="2000" xmlns="http://www.w3.org/2000/svg" xmlns:xlink="http://www.w3.org/1999/xlink"><g id="tight-bounds" transform="matrix(1,0,0,1,0.2400000000000091,-0.09999999999999432)"><svg viewBox="0 0 395.52 247.2" height="247.2" width="395.52"><g><svg></svg></g><g><svg viewBox="0 0 395.52 247.2" height="247.2" width="395.52"><mask id="dfb802c7-4f09-45e0-afe3-ed6e6a5c2a67"><rect width="640" height="400" fill="white"></rect><g transform="matrix(1,0,0,1,39.55199999999999,52.84103736263735)"><svg viewBox="0 0 316.416 141.5179252747253" height="141.5179252747253" width="316.416"><g><svg viewBox="0 0 316.416 141.5179252747253" height="141.5179252747253" width="316.416"><g><svg viewBox="0 0 316.416 141.5179252747253" height="141.5179252747253" width="316.416"><g><svg viewBox="0 0 316.416 141.5179252747253" height="141.5179252747253" width="316.416"><g id="SvgjsG1105"><svg viewBox="0 0 316.416 141.5179252747253" height="141.5179252747253" width="316.416" id="SvgjsSvg1104"><g><svg viewBox="0 0 316.416 141.5179252747253" height="141.5179252747253" width="316.416"><g transform="matrix(1,0,0,1,0,0)"><svg width="316.416" viewBox="0.15000000000000036 -37.7 91.99 41.7" height="141.5179252747253" data-palette-color="#085f63"><path d="M8.2 0L4.15 0 4.15-33.7 8.2-33.7 8.2 0ZM13.25-33.7L35.5-33.7 35.5-30.15 26.4-30.15 26.4 0 22.35 0 22.35-30.15 13.25-30.15 13.25-33.7ZM44.35-15.3L44.35-3.45 52-3.45Q55.2-3.45 56.92-4.93 58.65-6.4 58.65-9.25 58.65-12.1 56.72-13.7 54.8-15.3 51.25-15.3L51.25-15.3 44.35-15.3ZM50.45-30.25L44.35-30.25 44.35-18.75 49.75-18.75Q53.8-18.75 55.75-20.45 57.7-22.15 57.7-24.85L57.7-24.85Q57.7-27.2 55.87-28.73 54.05-30.25 50.45-30.25L50.45-30.25ZM40.3 0L40.3-33.7 50.45-33.7Q55.65-33.7 58.77-31.3 61.9-28.9 61.9-24.85L61.9-24.85Q61.9-21.95 60.27-19.83 58.65-17.7 56.1-17.15L56.1-17.15Q58.9-16.7 60.87-14.63 62.85-12.55 62.85-9L62.85-9Q62.85-4.95 60.17-2.48 57.5 0 52.6 0L52.6 0 40.3 0ZM65.89-33.7L88.14-33.7 88.14-30.15 79.04-30.15 79.04 0 74.99 0 74.99-30.15 65.89-30.15 65.89-33.7Z" opacity="1" transform="matrix(1,0,0,1,0,0)" fill="black" class="wordmark-text-0" id="SvgjsPath1103" stroke-width="7" stroke="black" stroke-linejoin="round"></path></svg></g></svg></g></svg></g></svg></g><g></g></svg></g></svg></g></svg></g></mask><g transform="matrix(1,0,0,1,39.55199999999999,52.84103736263735)"><svg viewBox="0 0 316.416 141.5179252747253" height="141.5179252747253" width="316.416"><g><svg viewBox="0 0 316.416 141.5179252747253" height="141.5179252747253" width="316.416"><g><svg viewBox="0 0 316.416 141.5179252747253" height="141.5179252747253" width="316.416"><g><svg viewBox="0 0 316.416 141.5179252747253" height="141.5179252747253" width="316.416"><g id="textblocktransform"><svg viewBox="0 0 316.416 141.5179252747253" height="141.5179252747253" width="316.416" id="textblock"><g><svg viewBox="0 0 316.416 141.5179252747253" height="141.5179252747253" width="316.416"><g transform="matrix(1,0,0,1,0,0)"><svg width="316.416" viewBox="0.15000000000000036 -37.7 91.99 41.7" height="141.5179252747253" data-palette-color="#085f63"><path d="M8.2 0L4.15 0 4.15-33.7 8.2-33.7 8.2 0ZM13.25-33.7L35.5-33.7 35.5-30.15 26.4-30.15 26.4 0 22.35 0 22.35-30.15 13.25-30.15 13.25-33.7ZM44.35-15.3L44.35-3.45 52-3.45Q55.2-3.45 56.92-4.93 58.65-6.4 58.65-9.25 58.65-12.1 56.72-13.7 54.8-15.3 51.25-15.3L51.25-15.3 44.35-15.3ZM50.45-30.25L44.35-30.25 44.35-18.75 49.75-18.75Q53.8-18.75 55.75-20.45 57.7-22.15 57.7-24.85L57.7-24.85Q57.7-27.2 55.87-28.73 54.05-30.25 50.45-30.25L50.45-30.25ZM40.3 0L40.3-33.7 50.45-33.7Q55.65-33.7 58.77-31.3 61.9-28.9 61.9-24.85L61.9-24.85Q61.9-21.95 60.27-19.83 58.65-17.7 56.1-17.15L56.1-17.15Q58.9-16.7 60.87-14.63 62.85-12.55 62.85-9L62.85-9Q62.85-4.95 60.17-2.48 57.5 0 52.6 0L52.6 0 40.3 0ZM65.89-33.7L88.14-33.7 88.14-30.15 79.04-30.15 79.04 0 74.99 0 74.99-30.15 65.89-30.15 65.89-33.7Z" opacity="1" transform="matrix(1,0,0,1,0,0)" fill="#085f63" class="wordmark-text-0" data-fill-palette-color="primary" id="text-0"></path></svg></g></svg></g></svg></g></svg></g><g></g></svg></g></svg></g></svg></g><g mask="url(#dfb802c7-4f09-45e0-afe3-ed6e6a5c2a67)"><g transform="matrix(3.0057068020482003, 0, 0, 3.0057068020482003, 83.34570441230633, 1)"><svg xmlns="http://www.w3.org/2000/svg" xmlns:xlink="http://www.w3.org/1999/xlink" version="1.1" x="0" y="0" viewBox="11.933999999999997 8.785850117612409 76.13137482985866 81.57814988238759" enable-background="new 0 0 100 100" xml:space="preserve" height="81.57814988238759" width="76.13137482985866" class="icon-none" data-fill-palette-color="accent" id="none"><g fill="#49beb7" data-fill-palette-color="accent"><path d="M35.742 42.748c-13.147 0-23.808 10.658-23.808 23.808 0 13.148 10.66 23.808 23.808 23.808s23.807-10.659 23.807-23.808C59.549 53.406 48.89 42.748 35.742 42.748zM15.226 66.556c0-4.351 1.356-8.382 3.667-11.702l0.264 0.2-0.159 0.641 0.588 0.161L19.478 55l0.481-0.054v-1.123h0.481c0 0 0.086 0.218 0.174 0.446 0.098 0.252 0.201 0.516 0.201 0.516l0.535 0.59c0 0-0.642 0.159-0.854 0.159-0.216 0-0.108 0.856-0.108 0.856l0.749 0.267 0.483-0.894 1.121-1.246 0.534-1.658 1.017-0.963-0.589-0.426 0.644-0.43 0.054-0.589-1.872 0.536-0.061-0.071c1.02-0.866 2.125-1.634 3.301-2.29l0.878 0.382-0.589 1.123h-1.177l-0.214 1.016h0.964l1.391-0.855 0.962-0.962 0.16-0.909-1.39-0.106 0.962-0.643 0.908 0.161-0.158 0.962 1.229-0.75 0.215 0.589 0.268 0.856-0.696 0.855-0.748 0.695-1.125-0.16 0.536 1.123-1.016-0.16-1.713 1.765 0.429 0.589 1.391-0.108 1.177-0.375 1.499-0.158 0.694-0.16c0 0 0-0.429-0.054-0.695-0.054-0.268 0.535 0.053 0.535 0.053l0.643-0.374 0.48-1.498 1.766-0.804-0.268-0.428 0.429-0.534L32.746 48.9l0.375-0.535-1.767-0.589h-0.909l0.32-0.802 0.375-0.375-0.03-0.03c1.488-0.343 3.037-0.53 4.632-0.53 2.483 0 4.862 0.441 7.066 1.25l-0.055 0.125-0.891-0.059v0.535l0.357 0.237v0.476l0.298 0.415-1.07-0.653-0.713 0.357 0.356 0.832 0.179 0.951 0.476 0.535 1.127 0.179-0.235 0.475-0.239 0.715 1.011 0.653-0.06 0.297-1.901-1.604-0.117 0.595 0.831 0.831 0.476 0.179-1.071 0.237-0.118 0.535-0.772-0.773-0.477-1.009-0.177-1.012-0.477 0.594 0.356 1.427 0.594 0.418-0.236 1.365-0.357-0.178 0.06 0.714-0.536-0.061-0.533-0.773h-0.653l-0.951-0.119-0.952 0.061-0.892 0.714-0.594 1.01-1.249 0.952-0.119 0.533v0.656l0.298 0.653 0.595-0.477 0.177 0.357 0.299 0.534 0.059 0.12 0.297 0.356 0.536-0.355-0.06-1.309 0.653-0.833c0 0 0.033-0.141 0.069-0.303 0.051-0.217 0.108-0.469 0.108-0.469l0.238-0.656 0.417 0.061-0.119 0.535-0.239 1.188 1.131-0.118 0.417 0.118-0.893 0.24 0.119 0.594-1.013 0.652 0.061 0.655-0.891 0.238-0.178 0.475-0.714-0.237h-0.476V59.66l-0.536 0.18v0.534l-1.486 1.189L31.52 61.86l-0.355 0.416-1.188-0.298-0.061 0.536 0.773 0.297-0.06 1.069-2.142-0.06-0.296 0.476-0.298 0.832-0.356 0.716 0.535 0.594 0.595 0.712 1.903-0.595 0.119-0.713 0.417-0.357 0.713-0.238-0.06-0.475 0.654-0.179 0.951-0.179 0.595 0.713 1.07 0.774 0.475 0.771v0.357l0.594-0.357-0.296-0.533 0.119-0.597-0.536-0.236-0.475-0.653 0.297-0.953 0.534 0.773 0.771 0.596 0.297 1.07 0.774 0.593 0.179 0.654 0.357-0.772-0.119-0.357 0.177-0.297 1.128-0.951 0.239-1.189 0.477-0.356 0.593 0.06 0.894-0.893 0.058 0.715 1.307 0.415v0.654h-1.068l-1.605 0.832-1.307 0.714 0.355 0.772 1.189 0.237 0.654 0.298 0.713-0.475 0.059 2.021-2.021 0.416-2.14-0.595-0.832 0.654 0.356 0.356-0.655-0.119-2.078-0.772-0.595 0.06-0.477-0.773V67.09h-1.07l-0.594-0.119-1.902 0.417-1.486-0.119-0.654 0.357-0.416 0.06-0.237 0.771-1.367 0.951-1.903 1.428-0.119 1.841-0.534 1.19 0.059 0.712 0.476 0.834 1.368 2.317 1.427 0.654 2.377 0.179-0.119-1.012-0.534-0.296 0.237-0.536 0.416 0.476 0.417 1.248 1.782 0.12 0.714 0.713 1.011 0.416 0.118 1.724 1.071 1.367 1.01 1.783-0.892 1.07 0.911 1.416C24.007 86.656 15.226 77.634 15.226 66.556zM42.772 85.836l2.48-1.804-0.892-2.199 2.854-3.745 0.89-2.378 0.416-1.309-1.485 0.715-0.892 0.179-2.198-1.368L43.29 72.44l-0.831-0.832L41.39 69.23l0.891 0.714 1.666 1.843 0.594 0.831 1.188 0.596 0.356 1.546 1.428-0.952 1.724-2.141 0.832-2.198-0.654-0.534-0.357-0.655-0.416 0.773-0.831 0.951-1.19-1.31-0.355-1.009 0.832 0.179 0.832 0.415 1.189-0.415 0.714 0.237 1.9-1.308 1.071 0.594 0.653-0.356 1.422 2.238 0.703-0.672 0.014-0.853 0.06-2.557 0.437-1.211c0.107 0.845 0.168 1.704 0.168 2.578C56.259 75.417 50.642 82.966 42.772 85.836z" fill="#49beb7" data-fill-palette-color="accent"></path><path d="M87.597 20.826L69.667 8.96c-0.231-0.155-0.519-0.21-0.793-0.151l-19.859 4.193c-0.4 0.084-0.715 0.396-0.805 0.798l-0.119 0.537c-0.094 0.423 0.082 0.86 0.445 1.1l8.314 5.503-0.339 1.533c-3.004 2.252-4.957 5.83-4.957 9.871 0 6.816 5.529 12.346 12.342 12.346 6.814 0 12.344-5.529 12.344-12.346 0-1.464-0.269-2.863-0.737-4.166 0.185-0.236 0.312-0.488 0.371-0.755l0.414-1.876 5.364-1.133c0.667 0.943 1.103 2.088 1.212 3.547-0.545 0.282-0.922 0.844-0.922 1.5 0 0.551 0.267 1.034 0.674 1.344-0.461 2.352-1.076 6.673 0.15 8.589 0.361 0.563 0.873 0.924 1.479 1.039 0.048 0.009 0.096 0.014 0.144 0.014 0.356 0 0.674-0.253 0.744-0.617 0.078-0.411-0.192-0.809-0.604-0.887-0.133-0.025-0.308-0.09-0.485-0.367-0.433-0.676-0.534-2.01-0.454-3.516 0.374 1.168 0.949 2.219 1.836 2.803 0.352 0.232 0.821 0.133 1.051-0.217s0.133-0.82-0.217-1.051c-1.192-0.785-1.695-3.477-1.803-5.66 0.52-0.289 0.875-0.837 0.875-1.474 0-0.667-0.389-1.238-0.949-1.514-0.1-1.555-0.504-2.82-1.128-3.871l3.861-0.816c0.401-0.084 0.716-0.396 0.805-0.797l0.119-0.537C88.135 21.503 87.958 21.064 87.597 20.826zM67.042 16.721c0.017-0.137 0.156-0.249 0.415-0.304 0.516-0.108 1.313 0.054 1.78 0.362 0.233 0.154 0.34 0.316 0.322 0.454l-0.076 0.376c-0.018 0.137-0.156 0.248-0.414 0.303-0.518 0.109-1.313-0.053-1.78-0.361-0.233-0.155-0.34-0.317-0.323-0.454L67.042 16.721z" fill="#49beb7" data-fill-palette-color="accent"></path><path d="M63.896 47.08c-2.799 0-5.464 0.698-7.888 1.959 4.069 4.702 6.54 10.824 6.54 17.517 0 4.897-1.326 9.489-3.63 13.444h18.437c3.72 0 6.73-3.68 6.73-8.23C84.086 58.141 75.043 47.08 63.896 47.08z" fill="#49beb7" data-fill-palette-color="accent"></path></g></svg></g></g></svg></g><defs></defs></svg><rect width="395.52" height="247.2" fill="none" stroke="none" visibility="hidden"></rect></g></svg></g></svg>